<svg xmlns="http://www.w3.org/2000/svg" viewBox="0 0 64 64"><defs><style>.cls-2{fill:#131313}</style></defs><g id="BG-Color"><rect width="64" height="64" rx="4" ry="4" style="fill:#ff8700"/><rect width="64" height="64" rx="4" ry="4" style="fill:#abd7ff"/></g><g id="ExtentionIcons"><path d="M42 28H22a2 2 0 0 0 0 4h20a2 2 0 0 0 0-4M42 20H22a2 2 0 0 0 0 4h20a2 2 0 0 0 0-4" class="cls-2"/><path d="M46 12H18c-3.309 0-6 2.691-6 6v18c0 3.309 2.691 6 6 6h2v6a2.002 2.002 0 0 0 3.11 1.664L34.604 42H46c3.309 0 6-2.691 6-6V18c0-3.309-2.691-6-6-6m2 24c0 1.103-.897 2-2 2H34c-.395 0-.781.117-1.11.336L24 44.263V40a2 2 0 0 0-2-2h-4c-1.103 0-2-.897-2-2V18c0-1.103.897-2 2-2h28c1.103 0 2 .897 2 2z" class="cls-2"/></g></svg>